<svg width="13" height="22" viewBox="0 0 13 22" fill="none" xmlns="http://www.w3.org/2000/svg">
<path d="M12.8262 10.7857C12.8262 10.6161 12.7414 10.4252 12.6141 10.298L2.73242 0.416293C2.60519 0.289062 2.41434 0.204239 2.2447 0.204239C2.07506 0.204239 1.88421 0.289062 1.75698 0.416293L0.696708 1.47656C0.569475 1.60379 0.484654 1.79464 0.484654 1.96428C0.484654 2.13393 0.569475 2.32478 0.696708 2.45201L9.03041 10.7857L0.696708 19.1194C0.569475 19.2467 0.484654 19.4375 0.484654 19.6071C0.484654 19.798 0.569475 19.9676 0.696708 20.0949L1.75698 21.1551C1.88421 21.2824 2.07506 21.3672 2.2447 21.3672C2.41434 21.3672 2.60519 21.2824 2.73242 21.1551L12.6141 11.2734C12.7414 11.1462 12.8262 10.9554 12.8262 10.7857Z" fill="black"/>
</svg>
